<svg id="visual" viewBox="0 0 900 600" width="900" height="600" xmlns="http://www.w3.org/2000/svg" xmlns:xlink="http://www.w3.org/1999/xlink" version="1.1"><rect x="0" y="0" width="900" height="600" fill="#ffffff"></rect><g transform="translate(433.6777000835712 330.7535345111882)"><path d="M193.5 -369.1C227 -315.8 213.9 -215.9 252.8 -146.6C291.6 -77.3 382.3 -38.7 413 17.7C443.8 74.2 414.6 148.3 376.8 219.3C338.9 290.4 292.5 358.2 228.2 354C164 349.7 82 273.3 9.5 256.8C-63 240.4 -126 283.9 -201.8 294.8C-277.6 305.7 -366.1 284.1 -387.6 229.6C-409.1 175 -363.6 87.5 -348.3 8.8C-333 -69.8 -347.9 -139.7 -314.2 -173C-280.4 -206.4 -198 -203.2 -137.5 -241C-77 -278.7 -38.5 -357.4 20.7 -393.3C80 -429.2 160 -422.5 193.5 -369.1" fill="#5decbd"></path></g></svg>